<svg width="20" height="16" viewBox="0 0 20 16" fill="none" xmlns="http://www.w3.org/2000/svg"><path fill-rule="evenodd" clip-rule="evenodd" d="M13.67 13.52v-.02h1.35l-.03.21A2.67 2.67 0 0 1 12.35 16h-8.7A2.67 2.67 0 0 1 1 13.71L.19 8 0 6.67H4.55l-.22-2.68A3.68 3.68 0 0 1 11.62 3h-1.37a2.35 2.35 0 0 0-4.59.88l.23 2.79H9.5V8H6.06l.22 2.67h3.44l.01-.17h1.34l-.01.17h1.44V12h-1.55l-.23 2.67h1.63c.67 0 1.23-.5 1.32-1.15ZM4.72 8H1.54l.38 2.67h3.02L4.72 8Zm1.9 6.67L6.38 12h3.22l-.22 2.67H6.6ZM5.04 12l.23 2.67H3.65c-.67 0-1.23-.5-1.32-1.15L2.1 12h2.94Zm10.75-2V7.2H13V5.8h2.8V3h1.4v2.8H20v1.4h-2.8V10h-1.4Z" fill="#fff"/></svg>