<svg width="38" height="50" fill="none" xmlns="http://www.w3.org/2000/svg"><ellipse cx="19" cy="48.5" rx="8" ry="1.5" fill="#7859CF" fill-opacity=".25"/><path d="M38 20c0 15.05-19 24-19 24S0 35.05 0 20C0 8.95 8.5 0 19 0s19 8.95 19 20Z" fill="#7859CF"/><path fill-rule="evenodd" clip-rule="evenodd" d="M19 36c8.28 0 15-7.16 15-16S27.28 4 19 4C10.72 4 4 11.16 4 20s6.72 16 15 16Zm9.86-10.67C29.59 23.73 30 21.92 30 20c0-6.63-4.92-12-11-12-.85 0-1.67.1-2.46.3 3.8 1 6.59 4.37 6.59 8.37 0 3.1-1.75 6.15-3.44 8.66h9.17ZM14.19 10.67a6.1 6.1 0 0 1 6.19 6c0 3.8-3.02 7.46-5.44 10.4l-.75.93h13A10.6 10.6 0 0 1 19 32c-6.08 0-11-5.37-11-12 0-3.66 1.62-9.33 6.19-9.33Z" fill="#fff"/></svg>